<?xml version="1.0" encoding="utf-8"?>
<!-- Generator: Adobe Illustrator 24.3.0, SVG Export Plug-In . SVG Version: 6.00 Build 0)  -->
<svg version="1.1" id="Layer_1" xmlns="http://www.w3.org/2000/svg" xmlns:xlink="http://www.w3.org/1999/xlink" x="0px" y="0px"
	 viewBox="0 0 100 100" style="enable-background:new 0 0 100 100;" xml:space="preserve">
<style type="text/css">
	.st0{fill:#FFFFFF;}
</style>
<path class="st0" d="M81.4,64.3c-1.3,0-2.7,0.2-4.3,0.6L61.7,50.5L77,35.1l0,0c5.8,1.5,12.1-0.1,16.3-4.4c3.7-3.7,5.5-9.1,4.8-14.3
	c-0.2-1.1-0.9-1.9-1.9-2.3c-1-0.3-2.1-0.1-2.9,0.7l-4,4c-2.1,2.1-5.8,2.1-8,0c-2.2-2.2-2.2-5.8,0-8l4-4c0.8-0.8,1-1.9,0.7-2.9
	S84.8,2.2,83.7,2c-5.3-0.7-10.6,1-14.3,4.8c-4.3,4.3-5.9,10.5-4.4,16.3L50.2,38L35.4,23c1.5-5.8-0.2-12-4.4-16.3
	c-6.4-6.4-17.5-6.4-23.9,0c-6.6,6.6-6.6,17.3,0,23.9c4.2,4.2,10.5,5.9,16.3,4.4l14.9,15L23.4,64.9l0,0c-5.8-1.5-12.1,0.1-16.3,4.4
	c-3.8,3.7-5.5,9-4.8,14.3c0.2,1.1,0.9,1.9,1.9,2.3c1,0.3,2.1,0.1,2.9-0.7l4-4c2.1-2.1,5.8-2.1,8,0c2.2,2.2,2.2,5.8,0,8l-4,4
	c-0.8,0.8-1,1.9-0.7,2.9s1.2,1.7,2.3,1.9c5.2,0.7,10.5-1,14.3-4.8c4.3-4.3,5.9-10.5,4.4-16.3l14.4-14.4l15.4,14.4
	c-0.4,1.6-0.6,3-0.6,4.3c0,9.3,7.6,16.9,16.9,16.9s16.9-7.6,16.9-16.9C98.3,71.9,90.7,64.3,81.4,64.3z M28,17.8l-1.7,6.3
	c-0.3,1-1,1.7-2,2L18,27.8c-0.9,0.3-2,0-2.7-0.7l-4.6-4.6c-0.7-0.7-1-1.8-0.7-2.7l1.7-6.3c0.3-1,1-1.7,2-2L20,9.8c1-0.3,2,0,2.7,0.7
	l4.6,4.6C28,15.8,28.3,16.8,28,17.8z M90.7,80.6L89,86.9c-0.3,1-1,1.7-2,2l-6.3,1.7c-0.9,0.3-2,0-2.7-0.7l-4.6-4.6
	c-0.7-0.7-1-1.8-0.7-2.7l1.7-6.3c0.3-1,1-1.7,2-2l6.3-1.7c1-0.3,2,0,2.7,0.7l4.6,4.6C90.6,78.6,90.9,79.6,90.7,80.6z"/>
</svg>
