<?xml version="1.0" encoding="utf-8"?>
<!-- Generator: Adobe Illustrator 24.3.0, SVG Export Plug-In . SVG Version: 6.00 Build 0)  -->
<svg version="1.1" id="Layer_1" xmlns="http://www.w3.org/2000/svg" xmlns:xlink="http://www.w3.org/1999/xlink" x="0px" y="0px"
	 viewBox="0 0 100 100" style="enable-background:new 0 0 100 100;" xml:space="preserve">
<style type="text/css">
	.st0{fill:#FFFFFF;}
</style>
<g>
	<path class="st0" d="M97.7,39.4c1.3-1.3,1.3-3.4,0-4.7l-5-5c-1.1-1.1-2.9-1.3-4.2-0.4l-10.4,7.1l7-10.5c0.9-1.3,0.7-3.1-0.4-4.2
		L73.9,11c-1-1-2.5-1.3-3.8-0.6l-1.9,0.9l0.9-2c0.6-1.3,0.3-2.7-0.7-3.7L65,2.2c-1.3-1.3-3.4-1.3-4.7,0l-26,26.2l37.2,37.2
		L97.7,39.4z"/>
	<path class="st0" d="M29.4,33.3l-7.6,7.6c-0.6,0.6-1,1.5-1,2.3c0,0.9,0.3,1.7,1,2.3l7.2,7.2c1.4,1.4,2.1,3.3,1.8,5.3
		c-0.2,2-1.3,3.7-2.9,4.7C6.7,76.2,4.7,78.2,4.1,78.9c-4.7,4.7-4.7,12.2,0,16.9c4.7,4.7,12.2,4.6,16.9,0c0.6-0.6,2.6-2.6,16.1-23.8
		c1.1-1.7,2.8-2.7,4.7-2.9c2-0.2,3.9,0.5,5.3,1.8l7.2,7.2c1.3,1.3,3.4,1.3,4.7,0l7.6-7.6L29.4,33.3z M16,90.4
		c-1.8,1.8-4.8,1.8-6.6,0s-1.8-4.8,0-6.6c1.8-1.8,4.8-1.8,6.6,0C17.9,85.6,17.9,88.6,16,90.4L16,90.4z"/>
</g>
</svg>
