<?xml version="1.0" encoding="utf-8"?>
<!-- Generator: Adobe Illustrator 24.3.0, SVG Export Plug-In . SVG Version: 6.00 Build 0)  -->
<svg version="1.1" id="Layer_1" xmlns="http://www.w3.org/2000/svg" xmlns:xlink="http://www.w3.org/1999/xlink" x="0px" y="0px"
	 viewBox="0 0 100 100" style="enable-background:new 0 0 100 100;" xml:space="preserve">
<style type="text/css">
	.st0{fill:#9D9D9D;}
</style>
<path class="st0" d="M35.9,53.8c-4.8,0-8.6,3.9-8.6,8.6v14.4c0,12.7,10.3,23.2,23,23.2s23-10.5,23-23.2V66.6c0-3.7-2.4-7-5.9-8.2
	l-11.4-3.8V33.3c0-3.2-2.6-5.8-5.8-5.8c-3.2,0-5.8,2.6-5.8,5.8v37.8c0,1.6-1.3,2.9-2.9,2.9c-1.6,0-2.9-1.3-2.9-2.9V53.8H35.9z
	 M35.9,53.8"/>
<path class="st0" d="M50.3,17.4c8,0,14.5,6.5,14.5,14.5v10.2h14.2c11.1,0,20.3-9,20.3-20.1S90.2,1.8,79.1,1.8H21.4
	c-11.1,0-20.1,9-20.1,20.1s9,20.1,20.1,20.1h14.4V31.9C35.8,23.9,42.3,17.4,50.3,17.4z"/>
</svg>
