<?xml version="1.0" encoding="utf-8"?>
<!-- Generator: Adobe Illustrator 24.3.0, SVG Export Plug-In . SVG Version: 6.00 Build 0)  -->
<svg version="1.1" id="Layer_1" xmlns="http://www.w3.org/2000/svg" xmlns:xlink="http://www.w3.org/1999/xlink" x="0px" y="0px"
	 viewBox="0 0 100 100" style="enable-background:new 0 0 100 100;" xml:space="preserve">
<style type="text/css">
	.st0{fill:#9D9D9D;}
</style>
<g>
	<path class="st0" d="M98.5,44.6c-0.2-1.4-1.8-2.4-3.1-2.4c-4.5,0-8.4-2.6-10.1-6.7c-1.7-4.2-0.6-9,2.7-12.1c1-1,1.2-2.6,0.3-3.7
		c-2.3-2.9-4.9-5.5-7.7-7.8c-1.1-0.9-2.7-0.8-3.7,0.3c-2.9,3.2-8.1,4.4-12.2,2.7c-4.2-1.8-6.8-6-6.6-10.6c0.1-1.4-1-2.7-2.4-2.8
		c-3.6-0.4-7.3-0.4-11,0c-1.4,0.2-2.5,1.4-2.4,2.8c0.2,4.5-2.5,8.7-6.7,10.4c-4,1.6-9.2,0.4-12.1-2.7c-1-1.1-2.6-1.2-3.7-0.3
		c-2.9,2.3-5.6,4.9-7.9,7.8c-0.9,1.1-0.8,2.7,0.3,3.7c3.4,3.1,4.5,8,2.7,12.2c-1.7,4-5.8,6.6-10.6,6.6c-1.5,0-2.6,1-2.8,2.4
		c-0.4,3.7-0.4,7.4,0,11.1c0.2,1.4,1.8,2.4,3.2,2.4c4.2-0.1,8.3,2.5,10,6.7c1.7,4.2,0.6,9-2.7,12.1c-1,1-1.2,2.6-0.3,3.7
		c2.3,2.9,4.9,5.5,7.7,7.8c1.1,0.9,2.7,0.8,3.7-0.3c2.9-3.2,8.1-4.4,12.2-2.7c4.2,1.8,6.9,6,6.6,10.6c-0.1,1.4,1,2.7,2.4,2.8
		c1.9,0.2,3.7,0.3,5.6,0.3c1.8,0,3.6-0.1,5.4-0.3c1.4-0.2,2.5-1.4,2.4-2.8c-0.2-4.5,2.5-8.7,6.7-10.4c4-1.6,9.2-0.4,12.1,2.7
		c1,1,2.6,1.2,3.7,0.3c2.9-2.3,5.6-4.9,7.9-7.8c0.9-1.1,0.8-2.7-0.3-3.7c-3.4-3.1-4.5-8-2.7-12.2c1.7-4,5.7-6.6,10-6.6l0.6,0
		c1.4,0.1,2.7-1,2.9-2.4C98.9,52,98.9,48.3,98.5,44.6z M74.1,64.4c-0.2,0.3-0.4,0.6-0.6,0.9l-10-10c0.8-1.8,1.2-3.7,1.2-5.7
		c0-3.9-1.5-7.6-4.3-10.3C57.7,36.5,54,35,50.1,35c-1.3,0-2.6,0.2-3.9,0.5c-0.6,0.2-1,0.6-1.1,1.2c-0.1,0.6,0,1.1,0.5,1.6
		c0,0,5.2,5.2,6.9,6.9c0.2,0.2,0.2,0.6,0.2,0.8l0,0.1c-0.2,1.9-0.5,4.2-0.8,5.1c0,0-0.1,0.1-0.1,0.1c0,0-0.1,0.1-0.1,0.1
		c-0.9,0.3-3.2,0.6-5.1,0.8l0,0l-0.1,0c0,0,0,0-0.1,0c-0.2,0-0.5-0.1-0.8-0.3c-1.8-1.8-6.8-6.7-6.8-6.7c-0.4-0.4-0.9-0.5-1.2-0.5
		c-0.7,0-1.3,0.5-1.5,1.2c-1.4,5,0.1,10.5,3.8,14.2c2.8,2.8,6.4,4.3,10.3,4.3c2,0,3.9-0.4,5.7-1.2l10.1,10.1
		c-0.2,0.1-0.3,0.2-0.5,0.3l-0.3,0.2c-4.5,2.9-9.9,4.5-15.7,4.4c-14.9-0.3-27.1-12.4-27.5-27.2c-0.5-16.2,12.8-29.5,29-29
		c15,0.5,27.2,13,27.2,28C78.1,55.2,76.7,60.2,74.1,64.4z"/>
</g>
</svg>
